<svg xmlns="http://www.w3.org/2000/svg" viewBox="0 0 420 180"><path d="M -12 114 C 82 142, 148 22, 244 36 S 360 126, 440 54" fill="none" stroke="black" stroke-width="1" vector-effect="non-scaling-stroke"/><path d="M -12 123 C 82 147, 148 32, 244 46 S 360 133, 440 66" fill="none" stroke="black" stroke-width="1" vector-effect="non-scaling-stroke"/><path d="M -12 132 C 82 152, 148 42, 244 56 S 360 140, 440 78" fill="none" stroke="black" stroke-width="1" vector-effect="non-scaling-stroke"/><path d="M -12 141 C 82 157, 148 52, 244 66 S 360 147, 440 90" fill="none" stroke="black" stroke-width="1" vector-effect="non-scaling-stroke"/><path d="M -12 150 C 82 162, 148 62, 244 76 S 360 154, 440 102" fill="none" stroke="black" stroke-width="1" vector-effect="non-scaling-stroke"/><path d="M -12 159 C 82 167, 148 72, 244 86 S 360 161, 440 114" fill="none" stroke="black" stroke-width="1" vector-effect="non-scaling-stroke"/><path d="M -12 168 C 82 172, 148 82, 244 96 S 360 168, 440 126" fill="none" stroke="black" stroke-width="1" vector-effect="non-scaling-stroke"/></svg>
